<?xml version="1.0" encoding="UTF-8" standalone="no"?>
<svg
   viewBox="0 0 160 120"
   version="1.1"
   id="svg24"
   sodipodi:docname="logo.svg"
   width="160"
   height="120"
   inkscape:export-filename="logo.png"
   inkscape:export-xdpi="96"
   inkscape:export-ydpi="96"
   inkscape:version="1.1.1 (3bf5ae0d25, 2021-09-20, custom)"
   xmlns:inkscape="http://www.inkscape.org/namespaces/inkscape"
   xmlns:sodipodi="http://sodipodi.sourceforge.net/DTD/sodipodi-0.dtd"
   xmlns="http://www.w3.org/2000/svg"
   xmlns:svg="http://www.w3.org/2000/svg">
  <sodipodi:namedview
     id="namedview26"
     pagecolor="#ffffff"
     bordercolor="#666666"
     borderopacity="1.0"
     inkscape:pageshadow="2"
     inkscape:pageopacity="0.0"
     inkscape:pagecheckerboard="0"
     showgrid="false"
     width="160px"
     height="140px"
     inkscape:zoom="1.2867311"
     inkscape:cx="-61.007308"
     inkscape:cy="-66.058868"
     inkscape:window-width="1920"
     inkscape:window-height="998"
     inkscape:window-x="0"
     inkscape:window-y="0"
     inkscape:window-maximized="1"
     inkscape:current-layer="svg24" />
  <defs
     id="defs4">
    <style
       id="style2">.cls-1{fill:#97bfb7;}.cls-2{fill:#efd648;}.cls-3,.cls-6{fill:none;}.cls-3{stroke:#e8ad45;stroke-width:1.81px;}.cls-3,.cls-4,.cls-5,.cls-6{stroke-linecap:round;stroke-linejoin:round;}.cls-4{fill:#959997;stroke:#959997;stroke-width:1.18px;}.cls-5{fill:#777;stroke:#777;stroke-width:0.35px;}.cls-6{stroke:#6c6c70;stroke-width:0.71px;}</style>
  </defs>
  <g
     id="g1293"
     transform="translate(13.941131,123.72738)">
    <path
       class="cls-1"
       d="m 4.34744,-25.993103 c 0,0 -15.64,-8.67 -16.54,-20.98 -0.82,-11 3.33,-21.44 17.23,-27.71 0,0 -5.63,-40.549997 31.67,-44.359997 0,0 28.6,-3.87 35.27,22.999997 0,0 13.59,-12.739997 28.71,-3.54 14.28,8.71 11.52,21.35 8.3,30.15 0,0 7.62,-7.11 23.66,1.14 13.1,6.72 11.72,25.42 11.72,25.42 0,0 0.58,16.08 -23.2,17.22 z"
       id="path6-3"
       style="fill:#97bfb7" />
    <path
       class="cls-2"
       d="m 79.85744,-57.393103 c 0,9.21 -5.11,17.93 -12.77,21.87 -2.65,1.36 -1.16,13.55 -4.26,13.83 -0.72,0.07 -13.45,0 -14.19,0 -3.68,0 -2.31,-12.66 -5.42,-14.15 a 23.77,23.77 0 0 1 10.27,-45.2 c 13.13,0 26.37,10.52 26.37,23.65 z"
       id="path8-6"
       style="fill:#efd648" />
    <polyline
       class="cls-3"
       points="65.13 97.84 56.73 68.04 49.64 66.74 56.85 60.53 59.22 64.5 61.58 59.41 65.84 70.29 67.85 61.19 70.69 67.93 76.36 60.48 84.28 66.51 76.83 67.22 70.63 97.58"
       id="polyline10-7"
       style="fill:none;stroke:#e8ad45;stroke-width:1.81px;stroke-linecap:round;stroke-linejoin:round"
       transform="translate(-12.29256,-119.2331)" />
    <rect
       class="cls-4"
       x="48.047443"
       y="-21.213106"
       width="15.13"
       height="9.2200003"
       id="rect12-5"
       style="fill:#959997;stroke:#959997;stroke-width:1.18px;stroke-linecap:round;stroke-linejoin:round" />
    <path
       class="cls-5"
       d="m 49.70744,-11.463103 c 0.18,0 5.75,3.07 5.75,3.07 l 5.83,-3.07 z"
       id="path14-3"
       style="fill:#777777;stroke:#777777;stroke-width:0.35px;stroke-linecap:round;stroke-linejoin:round" />
    <line
       class="cls-6"
       x1="48.287441"
       y1="-18.733103"
       x2="62.827442"
       y2="-18.733103"
       id="line16-5"
       style="fill:none;stroke:#6c6c70;stroke-width:0.71px;stroke-linecap:round;stroke-linejoin:round" />
    <line
       class="cls-6"
       x1="50.057438"
       y1="-16.483103"
       x2="61.057438"
       y2="-16.483103"
       id="line18-6"
       style="fill:none;stroke:#6c6c70;stroke-width:0.71px;stroke-linecap:round;stroke-linejoin:round" />
    <line
       class="cls-6"
       x1="48.287441"
       y1="-14.3631"
       x2="62.827442"
       y2="-14.3631"
       id="line20-2"
       style="fill:none;stroke:#6c6c70;stroke-width:0.71px;stroke-linecap:round;stroke-linejoin:round" />
  </g>
</svg>
